<svg preserveAspectRatio="xMidYMid meet" data-bbox="92.13 48.191 382.674 470.55" xmlns="http://www.w3.org/2000/svg" width="566.929" height="566.929" viewBox="92.13 48.191 382.674 470.55" data-type="color" role="presentation" aria-hidden="true" aria-label="">
    <g>
        <path fill="#C3FF5B" d="M302.866 186.116v-3.35c.601-1.043 1.445-.677 2.165-.761 1.644-1.035.214-2.891 1.096-4.132 1.961-.348 2.962-1.741 3.696-3.423l1.147 1.148c2.158-.05.176-2.66 2.067-3.334.997-.355 2.221-.82 3.314-1.438.13-2.275 1.212-3.997 2.451-5.93a120.404 120.404 0 0 1 5.324-7.674c1.205-1.596 4.167-1.288 4.035-4.35-.079-1.81 1.413-3.401 3.58-3.707.739-3.849 4.443-5.297 6.526-8.059a268.996 268.996 0 0 1 5.343-6.879c1.423-1.766 3.344-3.116 4.962-4.62 3.344-3.109 6.293-6.315 8.458-10.316.479-.884 2.087.155 2.607-1.513v-2.646c4.684-2.904 8.794-6.307 12.446-10.551 3.706-4.307 6.693-9.72 12.502-11.722 1.829-.63.375-3.951 3.171-3.174 2.358-5.92 9.001-7.365 12.571-12.122 3.46-4.612 8.948-7.095 12.987-11.065 3.555-3.495 8.011-5.608 11.617-8.958 3.361-3.123 7.746-4.872 12.018-6.104 2.24-.646 3.261-2.126 5.176-3.245h13.569c1.024.958 2.183 2.933 3.225 2.872 6.686-.388 5.301 5.413 6.65 8.734.892 2.196.169 5.049.169 7.606-2.962.26-3.079 3.078-4.421 4.836 1.506 1.338 4.271-.651 5.329 2.303 1.097-2.335.068-5.556 3.66-6.433 2.041.113 2.701 2.489 4.498 3.612v9.524c-5.097 4.73-7.848 11.729-13.722 17.561-5.646 1.157-11.502 6.431-19.096 4.413-1.118 2.641-4.266 2.616-5.41 4.792-1.06 2.019-3.084 3.05-4.364 4.927-1.19 1.745-3.008 3.452-4.719 4.794-2.565 2.012-5.801 3.167-9.453 5.048-.506.493.311 1.852.036 3.043-3.143 1.255-4.287 5.615-8.462 5.403-.511 1.018-.892 2.181-1.601 3.088-.94 1.202-2.04 2.333-3.254 3.251-1.032.78-.253 2.067-1.642 3.024-6.323 4.354-12.627 8.791-16.064 16.179-1.27 2.73-6.091 2.433-6.34 6.472-5.586 5.344-10.33 11.384-14.669 17.759-3.338.95-4.888 4.145-6.143 6.575-1.636 3.17-5.2 5.334-4.872 9.252-3.732 1.423-6.549 3.219-6.182 7.555-.969 1.273-2.361.481-3.545.719-2.774 4.773-6.391 8.998-9.545 13.504-2.64 3.771-5.428 7.475-8.083 11.281-1.495 2.143-1.63 6.168-5.713 6.007-.764 3.117-3.501 4.725-5.393 7.048v1.903c-3.426 4.111-6.662 7.332-9.112 11.069-5.419 8.267-10.899 16.523-16.106 24.891-4.043 6.497-8.713 12.627-12.282 19.456-2.882 5.515-6.174 10.822-9.636 16.027-2.57 3.865-3.876 8.605-8.172 10.737 0 1.237.272 2.15-.044 2.752-2.105 4.008-3.671 8.606-6.733 11.706-2.485 2.516-2.288 5.811-4.424 8.39-1.76 2.124-5.035 4.354-4.173 8.161-5.214 6.083-8.033 13.633-12.394 20.237-.531.804-1.748 1.268-1.426 2.477 1.098 4.128-2.485 6.294-4.16 9.02-2.651 4.314-4.654 8.822-6.76 13.375-1.689 3.653-2.81 7.757-5.176 10.882-2.85 3.765-3.597 7.836-4.219 12.359l-2.137.441c-1.483 4.439-2.706 9.155-6.824 12.97 1.873 6.088-4.449 12.427.137 19.087-2.537 3.23-2.189 7.292-1.401 10.718.841 3.656-3.5 6.827-.336 10.267-3.332 2.761.774 7.664-3.27 9.863l1.884 2.73c-1.229 4.755-4.333 7.643-8.652 9.351-.925-1.68-2.817-1.263-4.635-1.348-1.461-2.247.167-4.959-1.011-7.318-1.218-.446-2.254-.759-2.684 1.142-.8 3.545-4.424 3.232-7.586 6.103-1.409 4.388-5.419 9.23-8.643 15.318l-7.821 3.035-2.019-2.021c-2.4-3.862 3.812-4.559 2.967-7.818-1.094-1.289-2.479-.4-3.654-.697-1.499 3.189-4.378 5.31-7.366 5.932-2.625.546-4.741 1.038-6.485 3.105-.345.409-1.431.192-2.181.264-2.586-.408-3.106-3.077-4.829-3.806-.075-2.345 1.964-3.272 1.612-5.338-.383-2.242-1.007-5.387.131-6.72 1.659-1.942.295-4.627 2.384-6.029-1.466-3.821 1.182-6.897 2.18-10.145 1.025-3.335 2.072-6.755 3.818-9.956 1.435-2.63.582-6.224 2.719-8.34-1.615-2.65-4.778-2.191-5.167-4.847-.152-.855.287-1.435.985-1.97-1.39-4.119-.719-8.903-4.648-12.052 2.632-1.58.11-4.129 2.229-5.521l-3.288-2.717c1.24-5.785-1.935-11.211-2.21-17.995l-2.302-1.383v-9.695c-1.422-2.654-2.403-5.104-4.513-6.507.772-1.509 2.332-.214 2.936-2.191-1.735-1.702-.707-5.06-3.148-7.326l2.856-.987c.226-2.054-2.03-.489-2.409-1.624-1.362-1.811.917-2.501 1.281-4.021-.801-1.55-1.604-3.276-2.561-4.911-1.209-2.065-.867-3.767.775-5.141-3.33-5.197-1.248-11.789-4.616-16.495.71-1.58 1.944-1.076 2.875-1.62l-3.679-2.387c3.39-4.556-3.364-7.935.863-11.788-1.22-2.046-4.039-2.997-3.684-5.081-1.149-2.106 1.152-1.901.629-2.833.729-1.657-1.281-2.047-1.131-3.231.637-1.062 2.156.133 2.602-1.331-.896-.959-1.902-2.036-2.904-3.112-.609-1.52 1.003-2.061 1.384-3.144l-2.942-2.943c.214-4.453.099-9.124-2.508-13.253-1.058-1.676-.251-3.458-.555-5.159-.556-3.113 1.469-6.651-1.53-9.362 2.761-5.82-4.239-10.731-.909-16.499l-3.832-2.96c.703-1.774 2.639-.592 3.122-2.228l-2.676-.943c-.201-2.101 2.151-.351 2.558-1.942-3.864-3.368-4.942-8.276-5.914-13.16-.94-4.724-2.781-9.193-3.302-14.079-.282-2.64-2.829-4.809-3.067-7.96-.126-1.657-2.361-2.859-4.386-3.454l2.717-.964c.203-2.127-2.189-.302-2.557-1.887-.125-1.907-.895-4.188 1.157-6.012-.302-1.606-2.569-.309-2.737-1.603-.178-1.371-.681-2.344-1.713-3.137l2.941-2.944c.106-2.022-.598-4.894.527-6.349 1.778-2.299-1.065-3.249-.521-5.144.612-2.131.252-4.58.116-6.88-.231-3.905.43-7.42 3.751-10.012 1.263 1.109 2.815 1.548 4.517 1.312 1.248.458.841 1.65 1.289 2.81 5.216-.797 7.423 6.251 12.99 4.763 1.289 5.105 5.059 8.111 8.205 11.381 1.733 1.802 4.78 2.337 5.21 5.469 3.667-.13 2.307 3.883 4.08 5.049 4.886 3.212 4.958 8.622 6.597 13.332l2.495.652c-.277 3.826.983 7.445 2.866 10.833 1.734 3.12 1.279 7.36 4.888 9.455v7.654c.567 1.187 1.775.742 2.515 1.101 1.427 1.459.384 2.348-.978 3.675 1.853 1.687 3.722 3.507 4.571 6.017v5.972c.86 1.669 2.9 2.278 3.289 5.079.11.599-2.233.789-1.669 2.201-.105 2.325 2.156.856 3.054 2.48-2.048 3.204 3.842 6.633-.051 11.023l4.422 3.419c.534 2.285-.433 3.096-1.258 3.689.735 1.21 1.589.774 2.301.919.242.4.748.844.699 1.215-.753 5.81 2.676 11.222 1.586 17.058-.3 1.603 2.204 2.189 1.528 3.975 2.606.98.643 3.885 2.171 5.238 1.688 1.495 1.048 3.435.79 5.004-.343 2.086 1.839 2.956 1.655 4.766l-1.494 2.361 2.704.58v7.756c2.004 2.119 3.373 4.316 5.631 4.651 3.024 4.627 2.3 9.671 2.391 14.745 3.691-2.809 3.685-2.813 1.536-6.595 3.302-.986 5.134-3.818 7.509-5.991.606-2.288-.108-4.602 1.987-6.937 2.819-3.142 5.02-7.167 4.357-11.916l2.918-1.108v-4.067c3.264-4.971 7.027-9.305 9.168-14.332 2.425-5.692 7.943-9.921 7.987-16.988l6.294-5.661c-1.453-4.692 3.336-5.891 3.579-9.166 3.014.903 2.644-2.185 3.003-3.226 1.369-3.973 4.142-7.039 5.973-10.625 1.502-2.941 4.545-4.899 4.783-8.864.119-1.98 1.409-5.461 5.204-5.157-.342-6.043 7.51-8.158 6.33-14.34 2.421-2.592 4.576-5.156 6.424-8.169 2.111-3.442 5.337-6.338 7.024-10.071 1.802-3.988 5.484-6.772 6.624-11.094 2.68-.478 2.806-2.375 3.368-4.66.476-1.936 3.349-3.194 4.148-5.164.642-1.583 1.523-1.466 2.578-1.933.874-.387 2.043-1.329 2.116-2.114.68-7.342 8.209-10.719 9.947-17.453.361-1.418 2.17-1.837 4.071-2.275zm-47.813 122.083c5.713-1.561 7.695-5.713 3.987-9.767-1.16 3.518-3.886 5.994-4.119 8.978l-2.899 5.514 2.899-.377c-.001-1.548-.001-2.955.132-4.348zm113.825-156.575a15.203 15.203 0 0 0 6.534-3.143c1.871-1.535 3.21-3.746 5.23-3.909l2.763-5.604c3.22.178 3.719-4.324 7.611-3.19-1.911-3.693 1.359-5.126 2.633-7.626h-2.384c-.256 0-.514-.019-.768.003-2.006.169-2.486 2.684-4.123 2.989-3.1.579-2.581 5.105-6.259 5.258-.796.033-1.45 3.255-2.196 4.997-.094.219-.35.368-.303.32-4.66 1.057-5.367 5.974-8.708 8.025-.228.14-.03.977-.03 1.49-1.064-.039-1.577.474-1.467 1.106-2.58 4.987-8.187 6.292-10.83 10.727.748 3.808-2.634 5.12-4.543 7.272-2.029 2.287-4.789 4.063-6.329 6.608-1.624 2.685-4.116 4.367-5.868 6.659-1.829 2.391-3.889 4.106-6.171 5.468-.451 1.303.269 2.57-.858 3.69-4.534 4.506-7.733 10.058-11.557 15.122-.186.246.174.905.281 1.378 1.128.852 2.399.293 3.977.384-.83-3.259 3.088-3.836 3.621-6.846.4-2.26 3.826-2.842 5.307-5.231 1.211-1.954 2.196-4.818 5.112-5.448l.28-3.683 3.97-.461.965-2.615c1.242-.865 3.08.543 4.119-1.08.599-1.54-.916-2.117-1.433-3.154 1.574-1.539 3.234-3.015 3.807-5.276 3.348.284 3.302-3 4.768-4.593 1.255-.238 2.641.53 3.61-.772-1.835-1.14-1.595-2.931-1.474-4.693 5.023-2.055 8.399-5.788 10.878-10.121-.541-1.372-1.926-1.627-1.703-2.903 1.065.038 1.577-.475 1.538-1.148zm-64.586 82.683c-1.912.293-2.477 2.377-4.016 3.07-1.733.344-3.599-.702-5.388.919v5.042c-4.385.096-4.34 3.438-4.696 6.14-1.221.329-2.379-.019-2.789 1.257 1.082 2.613-3.385 5.031-.137 7.836-6.476.998-5.919 7.983-9.832 11.108-1.181.324-2.528-.479-3.935.833.864.682 1.885 1.463 1.565 2.827-3.728 3.816-5.33 9.136-9.071 13.104-1.821 1.931-2.858 5.062-.591 8.22 5.009-2.198 4.567-8.692 8.962-11.138 1.808-5.437 6.98-9.206 7.25-14.88 2.108-.965 3.822-1.75 5.539-2.531.291-3.234 1.341-6.126 3.771-8.401 1.237-.924 3.081.505 4.15-1.069 1.111-2.063-2.702-2.591-1.455-4.702 3.752-.733 5.031-3.399 4.675-7.85.889 1.411 1.322 1.8 1.36 2.225.067.751.132 1.41 1.048 1.84 1.616-4.513 4.219-8.732 3.604-13.784 2.088-1.208 4.516-1.819 6.341-4.161v-4.774c3.299-.404 6.359-.691 5.987-5.046-.126-1.475 1.479-1.911 2.195-2.899 1.284-1.771 3.709-2.687 4.025-5.083-1.083-2.084-2.731-.863-3.886-1.008-4.588 3.07-6.122 8.504-10.247 11.51v4.899c-2.04.204-3.326 1.293-4.415 2.689 0 1.274 0 2.549-.014 3.807zm-96.845 154.39v5.37l-3.064 2.433c-.065 4.046.533 7.76-2.056 11.24 2.665.623 4.562.664 6.369.161.396-1.216.551-2.124-.549-2.652-.75.251-.991 2.006-2.197.709-1.019-3.467 2.884-1.848 3.758-3.688.77-1.621 2.571-2.752 3.952-4.134-2.07-1.596-1.858-3.244-1.146-5.078l3.566-.419c2.071-2.611 2.292-5.772 2.157-8.727l2.715-.71c1.426-2.009-.712-3.811-.714-5.708.975-.178 1.829.261 2.522-.91-.737-.86-2.401-1.762-1.055-3.431 1.168-1.052 3.051.505 4.194-1.132 0-.928-.036-1.944.011-2.957.039-.839 1.971-.877 1.087-2.143-.905-.462-2.114.083-2.512-1.135 1.263-1.846 2.956-2.671 5.22-2.256.126.023.378-.637.564-.965l-2.394-2.396c7.564-13.617 15.948-26.625 21.835-41.207 1.874.291 2.882-.947 3.628-2.582l-2-1.895a15535.6 15535.6 0 0 1-3.946 3.671v2.71c-.528 1.736-1.977.702-2.663 1.576-1.051 3.917-3.49 6.929-7.014 9.929 2.914 3.755-1.533 5.44-2.656 8.296-1.125 2.861-3.261 5.322-3.317 8.634-1.7.435-4.211 1.231-4.07 2.665.413 4.184-4.165 5.58-4.433 8.978-.279 3.533-2.742 6.074-3.522 9.324-.093.387-.633.666-1.05 1.079h-3.586c2.04 3.891-2.14 2.19-3.268 4.262l3.493 2.442c-3.418 3.173-2.675 8.643-7.859 10.646zm208.101-280.763c3.408-4.265 7.761-6.98 13.109-7.953l.431-3.779c4.291-.603 4.668-4.284 6.185-7.116-.699-.437-1.374-.983-1.466-.898-2.018 1.871-4.502 3.319-5.641 6.016l-5.015.225c-1.346 4.699-5.668 6.537-8.13 10.01.253 1.086-.558 2.434.527 3.495zm-3.823-1.638c-5.86 4.605-9.026 11.189-15.114 15.167 2.98 1.606 5.418-.087 6.55-1.169 3.967-3.793 7.285-8.267 10.908-12.552l-2.344-1.446zM158.74 502.339c-.756 1.356-.756 2.711.077 4.205 1.413-.885 2.74-1.745 2.486-3.74-.723-.856-1.585-.965-2.563-.465zm80.225-155.7c.717-.5.717-1.013 0-1.512-.717.499-.717 1.012 0 1.512z" data-color="1"></path>
    </g>
</svg>